<mxfile host="Electron" modified="2023-12-14T06:26:27.281Z" agent="Mozilla/5.0 (Windows NT 10.0; Win64; x64) AppleWebKit/537.36 (KHTML, like Gecko) draw.io/22.1.2 Chrome/114.0.5735.289 Electron/25.9.4 Safari/537.36" etag="c-BYqYPi7oOcrOgNWfTn" version="22.1.2" type="device">
  <diagram name="Page-1" id="aqVS267DY5KYnl7mEPhy">
    <mxGraphModel dx="2100" dy="2342" grid="1" gridSize="10" guides="1" tooltips="1" connect="1" arrows="1" fold="1" page="1" pageScale="1" pageWidth="850" pageHeight="1100" math="0" shadow="0">
      <root>
        <mxCell id="0" />
        <mxCell id="1" parent="0" />
        <mxCell id="HZBSRFbbgN4RpWq9qFC1-2" value="Text" style="text;html=1;align=center;verticalAlign=middle;resizable=0;points=[];autosize=1;strokeColor=none;fillColor=none;" parent="1" vertex="1">
          <mxGeometry x="690" y="470" width="50" height="30" as="geometry" />
        </mxCell>
        <mxCell id="HZBSRFbbgN4RpWq9qFC1-9" value="user" style="rounded=0;whiteSpace=wrap;html=1;" parent="1" vertex="1">
          <mxGeometry x="625" y="475" width="125" height="40" as="geometry" />
        </mxCell>
        <mxCell id="HZBSRFbbgN4RpWq9qFC1-10" value="&lt;u&gt;user_id&lt;/u&gt;" style="ellipse;whiteSpace=wrap;html=1;" parent="1" vertex="1">
          <mxGeometry x="637.5" y="350" width="100" height="60" as="geometry" />
        </mxCell>
        <mxCell id="HZBSRFbbgN4RpWq9qFC1-11" value="contact" style="ellipse;whiteSpace=wrap;html=1;" parent="1" vertex="1">
          <mxGeometry x="509.31" y="553.75" width="80" height="32.5" as="geometry" />
        </mxCell>
        <mxCell id="HZBSRFbbgN4RpWq9qFC1-12" value="name" style="ellipse;whiteSpace=wrap;html=1;strokeColor=#000000;strokeWidth=3;" parent="1" vertex="1">
          <mxGeometry x="460" y="410" width="100" height="55" as="geometry" />
        </mxCell>
        <mxCell id="HZBSRFbbgN4RpWq9qFC1-14" value="password" style="ellipse;whiteSpace=wrap;html=1;" parent="1" vertex="1">
          <mxGeometry x="790" y="410" width="95" height="40" as="geometry" />
        </mxCell>
        <mxCell id="HZBSRFbbgN4RpWq9qFC1-18" value="order" style="rounded=0;whiteSpace=wrap;html=1;" parent="1" vertex="1">
          <mxGeometry x="1212.5" y="50" width="120" height="40" as="geometry" />
        </mxCell>
        <mxCell id="HZBSRFbbgN4RpWq9qFC1-19" value="order_amount" style="ellipse;whiteSpace=wrap;html=1;" parent="1" vertex="1">
          <mxGeometry x="1167.5" y="150" width="110" height="50" as="geometry" />
        </mxCell>
        <mxCell id="HZBSRFbbgN4RpWq9qFC1-22" value="user_id" style="ellipse;whiteSpace=wrap;html=1;" parent="1" vertex="1">
          <mxGeometry x="1342.5" y="-45" width="100" height="50" as="geometry" />
        </mxCell>
        <mxCell id="HZBSRFbbgN4RpWq9qFC1-23" value="&lt;u&gt;order_id&lt;/u&gt;" style="ellipse;whiteSpace=wrap;html=1;" parent="1" vertex="1">
          <mxGeometry x="1140" y="-70" width="105" height="50" as="geometry" />
        </mxCell>
        <mxCell id="HZBSRFbbgN4RpWq9qFC1-24" value="order_date" style="ellipse;whiteSpace=wrap;html=1;" parent="1" vertex="1">
          <mxGeometry x="1412.5" y="50" width="110" height="50" as="geometry" />
        </mxCell>
        <mxCell id="HZBSRFbbgN4RpWq9qFC1-25" value="product" style="rounded=0;whiteSpace=wrap;html=1;" parent="1" vertex="1">
          <mxGeometry x="1590" y="665" width="120" height="60" as="geometry" />
        </mxCell>
        <mxCell id="HZBSRFbbgN4RpWq9qFC1-27" value="description" style="ellipse;whiteSpace=wrap;html=1;" parent="1" vertex="1">
          <mxGeometry x="1420" y="725" width="100" height="62.5" as="geometry" />
        </mxCell>
        <mxCell id="HZBSRFbbgN4RpWq9qFC1-28" value="product_name" style="ellipse;whiteSpace=wrap;html=1;" parent="1" vertex="1">
          <mxGeometry x="1780" y="635" width="100" height="60" as="geometry" />
        </mxCell>
        <mxCell id="HZBSRFbbgN4RpWq9qFC1-29" value="&lt;u&gt;product_id&lt;/u&gt;" style="ellipse;whiteSpace=wrap;html=1;" parent="1" vertex="1">
          <mxGeometry x="1630" y="550" width="105" height="60" as="geometry" />
        </mxCell>
        <mxCell id="HZBSRFbbgN4RpWq9qFC1-30" value="price" style="ellipse;whiteSpace=wrap;html=1;" parent="1" vertex="1">
          <mxGeometry x="1785" y="732.5" width="100" height="60" as="geometry" />
        </mxCell>
        <mxCell id="HZBSRFbbgN4RpWq9qFC1-31" value="quantity" style="ellipse;whiteSpace=wrap;html=1;" parent="1" vertex="1">
          <mxGeometry x="1540" y="787.5" width="107.5" height="60" as="geometry" />
        </mxCell>
        <mxCell id="HZBSRFbbgN4RpWq9qFC1-32" value="image" style="ellipse;whiteSpace=wrap;html=1;" parent="1" vertex="1">
          <mxGeometry x="1680" y="787.5" width="100" height="60" as="geometry" />
        </mxCell>
        <mxCell id="HZBSRFbbgN4RpWq9qFC1-41" value="comments" style="rounded=0;whiteSpace=wrap;html=1;" parent="1" vertex="1">
          <mxGeometry x="790" y="1303.5" width="120" height="60" as="geometry" />
        </mxCell>
        <mxCell id="HZBSRFbbgN4RpWq9qFC1-42" value="content" style="ellipse;whiteSpace=wrap;html=1;" parent="1" vertex="1">
          <mxGeometry x="655" y="1403.5" width="100" height="60" as="geometry" />
        </mxCell>
        <mxCell id="HZBSRFbbgN4RpWq9qFC1-43" value="&lt;u&gt;comment_id&lt;/u&gt;" style="ellipse;whiteSpace=wrap;html=1;" parent="1" vertex="1">
          <mxGeometry x="737.5" y="1150" width="110" height="60" as="geometry" />
        </mxCell>
        <mxCell id="HZBSRFbbgN4RpWq9qFC1-44" value="user_id" style="ellipse;whiteSpace=wrap;html=1;" parent="1" vertex="1">
          <mxGeometry x="930" y="1203.5" width="100" height="60" as="geometry" />
        </mxCell>
        <mxCell id="HZBSRFbbgN4RpWq9qFC1-45" value="product_id" style="ellipse;whiteSpace=wrap;html=1;" parent="1" vertex="1">
          <mxGeometry x="910" y="1403.5" width="110" height="60" as="geometry" />
        </mxCell>
        <mxCell id="HZBSRFbbgN4RpWq9qFC1-46" value="order_detail" style="rounded=0;whiteSpace=wrap;html=1;" parent="1" vertex="1">
          <mxGeometry x="1315" y="1118.5" width="120" height="60" as="geometry" />
        </mxCell>
        <mxCell id="HZBSRFbbgN4RpWq9qFC1-48" value="product_id" style="ellipse;whiteSpace=wrap;html=1;" parent="1" vertex="1">
          <mxGeometry x="1510" y="1130" width="110" height="60" as="geometry" />
        </mxCell>
        <mxCell id="HZBSRFbbgN4RpWq9qFC1-49" value="order_id" style="ellipse;whiteSpace=wrap;html=1;" parent="1" vertex="1">
          <mxGeometry x="1425" y="1010" width="110" height="60" as="geometry" />
        </mxCell>
        <mxCell id="HZBSRFbbgN4RpWq9qFC1-50" value="&lt;u&gt;order_detail_id&lt;/u&gt;" style="ellipse;whiteSpace=wrap;html=1;" parent="1" vertex="1">
          <mxGeometry x="1250" y="990" width="105" height="60" as="geometry" />
        </mxCell>
        <mxCell id="HZBSRFbbgN4RpWq9qFC1-51" value="" style="endArrow=none;html=1;rounded=0;exitX=1;exitY=0.5;exitDx=0;exitDy=0;entryX=0;entryY=0.4;entryDx=0;entryDy=0;entryPerimeter=0;" parent="1" source="HZBSRFbbgN4RpWq9qFC1-18" target="HZBSRFbbgN4RpWq9qFC1-24" edge="1">
          <mxGeometry width="50" height="50" relative="1" as="geometry">
            <mxPoint x="1352.5" y="120" as="sourcePoint" />
            <mxPoint x="1402.5" y="70" as="targetPoint" />
          </mxGeometry>
        </mxCell>
        <mxCell id="HZBSRFbbgN4RpWq9qFC1-53" value="" style="endArrow=none;html=1;rounded=0;exitX=0.5;exitY=0;exitDx=0;exitDy=0;" parent="1" source="HZBSRFbbgN4RpWq9qFC1-19" edge="1">
          <mxGeometry width="50" height="50" relative="1" as="geometry">
            <mxPoint x="1182.5" y="140" as="sourcePoint" />
            <mxPoint x="1232.5" y="90" as="targetPoint" />
          </mxGeometry>
        </mxCell>
        <mxCell id="HZBSRFbbgN4RpWq9qFC1-58" value="" style="endArrow=none;html=1;rounded=0;entryX=0;entryY=0.5;entryDx=0;entryDy=0;" parent="1" target="HZBSRFbbgN4RpWq9qFC1-14" edge="1">
          <mxGeometry width="50" height="50" relative="1" as="geometry">
            <mxPoint x="750" y="495" as="sourcePoint" />
            <mxPoint x="800" y="445" as="targetPoint" />
          </mxGeometry>
        </mxCell>
        <mxCell id="HZBSRFbbgN4RpWq9qFC1-59" value="" style="endArrow=none;html=1;rounded=0;entryX=0.75;entryY=1;entryDx=0;entryDy=0;" parent="1" target="HZBSRFbbgN4RpWq9qFC1-9" edge="1">
          <mxGeometry width="50" height="50" relative="1" as="geometry">
            <mxPoint x="725" y="585" as="sourcePoint" />
            <mxPoint x="775" y="535" as="targetPoint" />
          </mxGeometry>
        </mxCell>
        <mxCell id="HZBSRFbbgN4RpWq9qFC1-60" value="" style="endArrow=none;html=1;rounded=0;exitX=0.94;exitY=0.294;exitDx=0;exitDy=0;exitPerimeter=0;entryX=0;entryY=1;entryDx=0;entryDy=0;" parent="1" source="HZBSRFbbgN4RpWq9qFC1-11" target="HZBSRFbbgN4RpWq9qFC1-9" edge="1">
          <mxGeometry width="50" height="50" relative="1" as="geometry">
            <mxPoint x="590" y="575" as="sourcePoint" />
            <mxPoint x="650" y="510" as="targetPoint" />
          </mxGeometry>
        </mxCell>
        <mxCell id="HZBSRFbbgN4RpWq9qFC1-61" value="" style="endArrow=none;html=1;rounded=0;" parent="1" target="HZBSRFbbgN4RpWq9qFC1-12" edge="1">
          <mxGeometry width="50" height="50" relative="1" as="geometry">
            <mxPoint x="625" y="485" as="sourcePoint" />
            <mxPoint x="675" y="435" as="targetPoint" />
          </mxGeometry>
        </mxCell>
        <mxCell id="HZBSRFbbgN4RpWq9qFC1-62" value="" style="endArrow=none;html=1;rounded=0;entryX=0.5;entryY=1;entryDx=0;entryDy=0;exitX=0.144;exitY=0.087;exitDx=0;exitDy=0;exitPerimeter=0;" parent="1" source="HZBSRFbbgN4RpWq9qFC1-2" target="HZBSRFbbgN4RpWq9qFC1-10" edge="1">
          <mxGeometry width="50" height="50" relative="1" as="geometry">
            <mxPoint x="690" y="475" as="sourcePoint" />
            <mxPoint x="740" y="425" as="targetPoint" />
          </mxGeometry>
        </mxCell>
        <mxCell id="HZBSRFbbgN4RpWq9qFC1-63" value="" style="endArrow=none;html=1;rounded=0;entryX=0.5;entryY=1;entryDx=0;entryDy=0;exitX=0.75;exitY=0;exitDx=0;exitDy=0;" parent="1" source="HZBSRFbbgN4RpWq9qFC1-25" target="HZBSRFbbgN4RpWq9qFC1-29" edge="1">
          <mxGeometry width="50" height="50" relative="1" as="geometry">
            <mxPoint x="1680" y="650" as="sourcePoint" />
            <mxPoint x="1710" y="615" as="targetPoint" />
          </mxGeometry>
        </mxCell>
        <mxCell id="HZBSRFbbgN4RpWq9qFC1-65" value="" style="endArrow=none;html=1;rounded=0;entryX=0.705;entryY=1;entryDx=0;entryDy=0;entryPerimeter=0;" parent="1" target="HZBSRFbbgN4RpWq9qFC1-23" edge="1">
          <mxGeometry width="50" height="50" relative="1" as="geometry">
            <mxPoint x="1247.5" y="50" as="sourcePoint" />
            <mxPoint x="1232.5" y="-20" as="targetPoint" />
          </mxGeometry>
        </mxCell>
        <mxCell id="HZBSRFbbgN4RpWq9qFC1-66" value="" style="endArrow=none;html=1;rounded=0;" parent="1" edge="1">
          <mxGeometry width="50" height="50" relative="1" as="geometry">
            <mxPoint x="1312.5" y="50" as="sourcePoint" />
            <mxPoint x="1362.5" as="targetPoint" />
          </mxGeometry>
        </mxCell>
        <mxCell id="HZBSRFbbgN4RpWq9qFC1-67" value="" style="endArrow=none;html=1;rounded=0;" parent="1" edge="1">
          <mxGeometry width="50" height="50" relative="1" as="geometry">
            <mxPoint x="1710" y="690" as="sourcePoint" />
            <mxPoint x="1785" y="675" as="targetPoint" />
          </mxGeometry>
        </mxCell>
        <mxCell id="HZBSRFbbgN4RpWq9qFC1-68" value="" style="endArrow=none;html=1;rounded=0;" parent="1" edge="1">
          <mxGeometry width="50" height="50" relative="1" as="geometry">
            <mxPoint x="1610" y="790" as="sourcePoint" />
            <mxPoint x="1640" y="725" as="targetPoint" />
          </mxGeometry>
        </mxCell>
        <mxCell id="HZBSRFbbgN4RpWq9qFC1-69" value="" style="endArrow=none;html=1;rounded=0;" parent="1" edge="1">
          <mxGeometry width="50" height="50" relative="1" as="geometry">
            <mxPoint x="1520" y="750" as="sourcePoint" />
            <mxPoint x="1590" y="720" as="targetPoint" />
          </mxGeometry>
        </mxCell>
        <mxCell id="HZBSRFbbgN4RpWq9qFC1-71" value="" style="endArrow=none;html=1;rounded=0;" parent="1" edge="1">
          <mxGeometry width="50" height="50" relative="1" as="geometry">
            <mxPoint x="1420" y="1118.5" as="sourcePoint" />
            <mxPoint x="1470" y="1068.5" as="targetPoint" />
          </mxGeometry>
        </mxCell>
        <mxCell id="HZBSRFbbgN4RpWq9qFC1-72" value="" style="endArrow=none;html=1;rounded=0;" parent="1" edge="1">
          <mxGeometry width="50" height="50" relative="1" as="geometry">
            <mxPoint x="1710" y="790" as="sourcePoint" />
            <mxPoint x="1685" y="725" as="targetPoint" />
          </mxGeometry>
        </mxCell>
        <mxCell id="HZBSRFbbgN4RpWq9qFC1-73" value="" style="endArrow=none;html=1;rounded=0;exitX=1;exitY=1;exitDx=0;exitDy=0;" parent="1" source="HZBSRFbbgN4RpWq9qFC1-25" edge="1">
          <mxGeometry width="50" height="50" relative="1" as="geometry">
            <mxPoint x="1735" y="805" as="sourcePoint" />
            <mxPoint x="1785" y="755" as="targetPoint" />
          </mxGeometry>
        </mxCell>
        <mxCell id="HZBSRFbbgN4RpWq9qFC1-74" style="edgeStyle=orthogonalEdgeStyle;rounded=0;orthogonalLoop=1;jettySize=auto;html=1;exitX=0.5;exitY=1;exitDx=0;exitDy=0;" parent="1" source="HZBSRFbbgN4RpWq9qFC1-49" target="HZBSRFbbgN4RpWq9qFC1-49" edge="1">
          <mxGeometry relative="1" as="geometry" />
        </mxCell>
        <mxCell id="HZBSRFbbgN4RpWq9qFC1-75" value="" style="endArrow=none;html=1;rounded=0;entryX=0.293;entryY=0.063;entryDx=0;entryDy=0;entryPerimeter=0;" parent="1" target="HZBSRFbbgN4RpWq9qFC1-45" edge="1">
          <mxGeometry width="50" height="50" relative="1" as="geometry">
            <mxPoint x="895" y="1363.5" as="sourcePoint" />
            <mxPoint x="945" y="1313.5" as="targetPoint" />
          </mxGeometry>
        </mxCell>
        <mxCell id="HZBSRFbbgN4RpWq9qFC1-77" value="" style="endArrow=none;html=1;rounded=0;entryX=0;entryY=1;entryDx=0;entryDy=0;exitX=1;exitY=0;exitDx=0;exitDy=0;" parent="1" source="HZBSRFbbgN4RpWq9qFC1-42" target="HZBSRFbbgN4RpWq9qFC1-41" edge="1">
          <mxGeometry width="50" height="50" relative="1" as="geometry">
            <mxPoint x="745" y="1413.5" as="sourcePoint" />
            <mxPoint x="790" y="1373.5" as="targetPoint" />
          </mxGeometry>
        </mxCell>
        <mxCell id="HZBSRFbbgN4RpWq9qFC1-78" value="" style="endArrow=none;html=1;rounded=0;entryX=0.5;entryY=1;entryDx=0;entryDy=0;" parent="1" target="HZBSRFbbgN4RpWq9qFC1-43" edge="1">
          <mxGeometry width="50" height="50" relative="1" as="geometry">
            <mxPoint x="815" y="1303.5" as="sourcePoint" />
            <mxPoint x="865" y="1253.5" as="targetPoint" />
          </mxGeometry>
        </mxCell>
        <mxCell id="HZBSRFbbgN4RpWq9qFC1-79" value="" style="endArrow=none;html=1;rounded=0;" parent="1" edge="1">
          <mxGeometry width="50" height="50" relative="1" as="geometry">
            <mxPoint x="910" y="1313.5" as="sourcePoint" />
            <mxPoint x="960" y="1263.5" as="targetPoint" />
          </mxGeometry>
        </mxCell>
        <mxCell id="HZBSRFbbgN4RpWq9qFC1-80" value="" style="endArrow=none;html=1;rounded=0;exitX=0.165;exitY=0.002;exitDx=0;exitDy=0;exitPerimeter=0;entryX=0.5;entryY=1;entryDx=0;entryDy=0;" parent="1" source="HZBSRFbbgN4RpWq9qFC1-46" target="HZBSRFbbgN4RpWq9qFC1-50" edge="1">
          <mxGeometry width="50" height="50" relative="1" as="geometry">
            <mxPoint x="1265" y="1110" as="sourcePoint" />
            <mxPoint x="1315" y="1060" as="targetPoint" />
          </mxGeometry>
        </mxCell>
        <mxCell id="HZBSRFbbgN4RpWq9qFC1-81" value="" style="endArrow=none;html=1;rounded=0;exitX=1;exitY=0.5;exitDx=0;exitDy=0;" parent="1" source="HZBSRFbbgN4RpWq9qFC1-46" edge="1">
          <mxGeometry width="50" height="50" relative="1" as="geometry">
            <mxPoint x="1460" y="1205" as="sourcePoint" />
            <mxPoint x="1510" y="1155" as="targetPoint" />
          </mxGeometry>
        </mxCell>
        <mxCell id="HZBSRFbbgN4RpWq9qFC1-89" value="" style="endArrow=none;dashed=1;html=1;dashPattern=1 3;strokeWidth=2;rounded=0;exitX=0.15;exitY=0.7;exitDx=0;exitDy=0;exitPerimeter=0;" parent="1" source="HZBSRFbbgN4RpWq9qFC1-22" edge="1">
          <mxGeometry width="50" height="50" relative="1" as="geometry">
            <mxPoint x="1377.5" y="40" as="sourcePoint" />
            <mxPoint x="1427.5" y="-10" as="targetPoint" />
          </mxGeometry>
        </mxCell>
        <mxCell id="HZBSRFbbgN4RpWq9qFC1-91" value="" style="endArrow=none;dashed=1;html=1;rounded=0;exitX=0.227;exitY=0.667;exitDx=0;exitDy=0;exitPerimeter=0;" parent="1" source="HZBSRFbbgN4RpWq9qFC1-49" edge="1">
          <mxGeometry width="50" height="50" relative="1" as="geometry">
            <mxPoint x="1470" y="1100" as="sourcePoint" />
            <mxPoint x="1520" y="1050" as="targetPoint" />
          </mxGeometry>
        </mxCell>
        <mxCell id="HZBSRFbbgN4RpWq9qFC1-92" value="" style="endArrow=none;dashed=1;html=1;rounded=0;entryX=0.75;entryY=0.75;entryDx=0;entryDy=0;entryPerimeter=0;" parent="1" target="HZBSRFbbgN4RpWq9qFC1-44" edge="1">
          <mxGeometry width="50" height="50" relative="1" as="geometry">
            <mxPoint x="945" y="1248.5" as="sourcePoint" />
            <mxPoint x="995" y="1198.5" as="targetPoint" />
          </mxGeometry>
        </mxCell>
        <mxCell id="HZBSRFbbgN4RpWq9qFC1-93" value="" style="endArrow=none;html=1;rounded=0;exitX=1;exitY=0;exitDx=0;exitDy=0;entryX=0;entryY=0.5;entryDx=0;entryDy=0;" parent="1" source="HZBSRFbbgN4RpWq9qFC1-9" target="HZBSRFbbgN4RpWq9qFC1-98" edge="1">
          <mxGeometry width="50" height="50" relative="1" as="geometry">
            <mxPoint x="674.9976595744678" y="450" as="sourcePoint" />
            <mxPoint x="790.2706622516554" y="259.9006622516556" as="targetPoint" />
          </mxGeometry>
        </mxCell>
        <mxCell id="HZBSRFbbgN4RpWq9qFC1-96" value="" style="edgeStyle=entityRelationEdgeStyle;fontSize=12;html=1;endArrow=ERoneToMany;rounded=0;entryX=0;entryY=0.5;entryDx=0;entryDy=0;" parent="1" target="HZBSRFbbgN4RpWq9qFC1-18" edge="1">
          <mxGeometry width="100" height="100" relative="1" as="geometry">
            <mxPoint x="870" y="255" as="sourcePoint" />
            <mxPoint x="1070" y="160" as="targetPoint" />
          </mxGeometry>
        </mxCell>
        <mxCell id="HZBSRFbbgN4RpWq9qFC1-98" value="makes" style="shape=rhombus;perimeter=rhombusPerimeter;whiteSpace=wrap;html=1;align=center;" parent="1" vertex="1">
          <mxGeometry x="750" y="225" width="120" height="60" as="geometry" />
        </mxCell>
        <mxCell id="HZBSRFbbgN4RpWq9qFC1-99" value="provides" style="shape=rhombus;perimeter=rhombusPerimeter;whiteSpace=wrap;html=1;align=center;" parent="1" vertex="1">
          <mxGeometry x="479.31" y="1000" width="120" height="60" as="geometry" />
        </mxCell>
        <mxCell id="HZBSRFbbgN4RpWq9qFC1-101" value="" style="edgeStyle=entityRelationEdgeStyle;fontSize=12;html=1;endArrow=ERoneToMany;rounded=0;entryX=0;entryY=0.5;entryDx=0;entryDy=0;exitX=1;exitY=0.5;exitDx=0;exitDy=0;" parent="1" source="HZBSRFbbgN4RpWq9qFC1-99" target="HZBSRFbbgN4RpWq9qFC1-41" edge="1">
          <mxGeometry width="100" height="100" relative="1" as="geometry">
            <mxPoint x="580" y="1180" as="sourcePoint" />
            <mxPoint x="670" y="1280" as="targetPoint" />
          </mxGeometry>
        </mxCell>
        <mxCell id="HZBSRFbbgN4RpWq9qFC1-103" value="" style="endArrow=none;html=1;rounded=0;entryX=0.352;entryY=0.965;entryDx=0;entryDy=0;entryPerimeter=0;exitX=0;exitY=0.5;exitDx=0;exitDy=0;" parent="1" source="HZBSRFbbgN4RpWq9qFC1-99" target="HZBSRFbbgN4RpWq9qFC1-9" edge="1">
          <mxGeometry width="50" height="50" relative="1" as="geometry">
            <mxPoint x="570" y="910" as="sourcePoint" />
            <mxPoint x="620" y="860" as="targetPoint" />
          </mxGeometry>
        </mxCell>
        <mxCell id="HZBSRFbbgN4RpWq9qFC1-111" value="" style="endArrow=none;html=1;rounded=0;entryX=0;entryY=0.5;entryDx=0;entryDy=0;" parent="1" edge="1">
          <mxGeometry width="50" height="50" relative="1" as="geometry">
            <mxPoint x="30" y="541.25" as="sourcePoint" />
            <mxPoint x="30" y="445" as="targetPoint" />
          </mxGeometry>
        </mxCell>
        <mxCell id="HZBSRFbbgN4RpWq9qFC1-112" value="" style="edgeStyle=entityRelationEdgeStyle;fontSize=12;html=1;endArrow=ERoneToMany;rounded=0;entryX=0;entryY=0.5;entryDx=0;entryDy=0;" parent="1" target="HZBSRFbbgN4RpWq9qFC1-46" edge="1">
          <mxGeometry width="100" height="100" relative="1" as="geometry">
            <mxPoint x="1040" y="881.5" as="sourcePoint" />
            <mxPoint x="1355" y="1130" as="targetPoint" />
          </mxGeometry>
        </mxCell>
        <mxCell id="HZBSRFbbgN4RpWq9qFC1-114" value="receives" style="shape=rhombus;perimeter=rhombusPerimeter;whiteSpace=wrap;html=1;align=center;" parent="1" vertex="1">
          <mxGeometry x="920" y="850" width="120" height="60" as="geometry" />
        </mxCell>
        <mxCell id="HZBSRFbbgN4RpWq9qFC1-115" value="" style="endArrow=none;html=1;rounded=0;entryX=1;entryY=1;entryDx=0;entryDy=0;exitX=0;exitY=0.5;exitDx=0;exitDy=0;" parent="1" source="HZBSRFbbgN4RpWq9qFC1-114" target="HZBSRFbbgN4RpWq9qFC1-9" edge="1">
          <mxGeometry width="50" height="50" relative="1" as="geometry">
            <mxPoint x="860" y="850" as="sourcePoint" />
            <mxPoint x="910" y="800" as="targetPoint" />
            <Array as="points">
              <mxPoint x="820" y="660" />
            </Array>
          </mxGeometry>
        </mxCell>
        <mxCell id="HZBSRFbbgN4RpWq9qFC1-116" value="contain" style="shape=rhombus;perimeter=rhombusPerimeter;whiteSpace=wrap;html=1;align=center;" parent="1" vertex="1">
          <mxGeometry x="1460" y="320" width="120" height="60" as="geometry" />
        </mxCell>
        <mxCell id="HZBSRFbbgN4RpWq9qFC1-117" value="" style="endArrow=none;html=1;rounded=0;entryX=0.5;entryY=0;entryDx=0;entryDy=0;exitX=1;exitY=0.75;exitDx=0;exitDy=0;" parent="1" source="HZBSRFbbgN4RpWq9qFC1-18" target="HZBSRFbbgN4RpWq9qFC1-116" edge="1">
          <mxGeometry width="50" height="50" relative="1" as="geometry">
            <mxPoint x="860" y="650" as="sourcePoint" />
            <mxPoint x="910" y="600" as="targetPoint" />
          </mxGeometry>
        </mxCell>
        <mxCell id="HZBSRFbbgN4RpWq9qFC1-118" value="" style="edgeStyle=entityRelationEdgeStyle;fontSize=12;html=1;endArrow=ERoneToMany;rounded=0;exitX=0.5;exitY=1;exitDx=0;exitDy=0;entryX=0;entryY=0.5;entryDx=0;entryDy=0;" parent="1" target="HZBSRFbbgN4RpWq9qFC1-25" edge="1">
          <mxGeometry width="100" height="100" relative="1" as="geometry">
            <mxPoint x="1580" y="350" as="sourcePoint" />
            <mxPoint x="1410" y="670" as="targetPoint" />
            <Array as="points">
              <mxPoint x="1610" y="580" />
            </Array>
          </mxGeometry>
        </mxCell>
        <mxCell id="3AvEHYJeGfzTruxZetYz-1" value="last_name" style="ellipse;whiteSpace=wrap;html=1;" parent="1" vertex="1">
          <mxGeometry x="410" y="490" width="80" height="50" as="geometry" />
        </mxCell>
        <mxCell id="3AvEHYJeGfzTruxZetYz-2" value="first_name" style="ellipse;whiteSpace=wrap;html=1;" parent="1" vertex="1">
          <mxGeometry x="315" y="430" width="85" height="50" as="geometry" />
        </mxCell>
        <mxCell id="3AvEHYJeGfzTruxZetYz-3" value="" style="endArrow=none;html=1;rounded=0;entryX=0.405;entryY=0.961;entryDx=0;entryDy=0;entryPerimeter=0;" parent="1" target="HZBSRFbbgN4RpWq9qFC1-12" edge="1">
          <mxGeometry width="50" height="50" relative="1" as="geometry">
            <mxPoint x="460" y="490" as="sourcePoint" />
            <mxPoint x="490" y="470" as="targetPoint" />
          </mxGeometry>
        </mxCell>
        <mxCell id="3AvEHYJeGfzTruxZetYz-5" value="" style="endArrow=none;html=1;rounded=0;entryX=0;entryY=0.5;entryDx=0;entryDy=0;" parent="1" target="HZBSRFbbgN4RpWq9qFC1-12" edge="1">
          <mxGeometry width="50" height="50" relative="1" as="geometry">
            <mxPoint x="400" y="450" as="sourcePoint" />
            <mxPoint x="450" y="400" as="targetPoint" />
          </mxGeometry>
        </mxCell>
        <mxCell id="3AvEHYJeGfzTruxZetYz-6" value="countery" style="ellipse;whiteSpace=wrap;html=1;" parent="1" vertex="1">
          <mxGeometry x="810" y="517.5" width="100" height="50" as="geometry" />
        </mxCell>
        <mxCell id="3AvEHYJeGfzTruxZetYz-7" value="" style="endArrow=none;html=1;rounded=0;" parent="1" target="3AvEHYJeGfzTruxZetYz-6" edge="1">
          <mxGeometry width="50" height="50" relative="1" as="geometry">
            <mxPoint x="750" y="510" as="sourcePoint" />
            <mxPoint x="800" y="460" as="targetPoint" />
          </mxGeometry>
        </mxCell>
        <mxCell id="3AvEHYJeGfzTruxZetYz-8" value="" style="endArrow=none;html=1;rounded=0;exitX=0.25;exitY=0;exitDx=0;exitDy=0;" parent="1" source="HZBSRFbbgN4RpWq9qFC1-9" target="3AvEHYJeGfzTruxZetYz-9" edge="1">
          <mxGeometry width="50" height="50" relative="1" as="geometry">
            <mxPoint x="655" y="470" as="sourcePoint" />
            <mxPoint x="610" y="390" as="targetPoint" />
          </mxGeometry>
        </mxCell>
        <mxCell id="3AvEHYJeGfzTruxZetYz-9" value="city" style="ellipse;whiteSpace=wrap;html=1;" parent="1" vertex="1">
          <mxGeometry x="552.5" y="330" width="87.5" height="40" as="geometry" />
        </mxCell>
        <mxCell id="3AvEHYJeGfzTruxZetYz-10" value="" style="endArrow=none;html=1;rounded=0;exitX=0.152;exitY=0.029;exitDx=0;exitDy=0;exitPerimeter=0;" parent="1" target="3AvEHYJeGfzTruxZetYz-11" edge="1" source="HZBSRFbbgN4RpWq9qFC1-9">
          <mxGeometry width="50" height="50" relative="1" as="geometry">
            <mxPoint x="640" y="470" as="sourcePoint" />
            <mxPoint x="530" y="360" as="targetPoint" />
          </mxGeometry>
        </mxCell>
        <mxCell id="3AvEHYJeGfzTruxZetYz-11" value="state" style="ellipse;whiteSpace=wrap;html=1;" parent="1" vertex="1">
          <mxGeometry x="440" y="320" width="90" height="50" as="geometry" />
        </mxCell>
        <mxCell id="3AvEHYJeGfzTruxZetYz-12" value="" style="endArrow=none;html=1;rounded=0;" parent="1" target="3AvEHYJeGfzTruxZetYz-13" edge="1">
          <mxGeometry width="50" height="50" relative="1" as="geometry">
            <mxPoint x="755" y="510" as="sourcePoint" />
            <mxPoint x="860" y="490" as="targetPoint" />
          </mxGeometry>
        </mxCell>
        <mxCell id="3AvEHYJeGfzTruxZetYz-13" value="postal_code" style="ellipse;whiteSpace=wrap;html=1;" parent="1" vertex="1">
          <mxGeometry x="820" y="460" width="110" height="50" as="geometry" />
        </mxCell>
        <mxCell id="3AvEHYJeGfzTruxZetYz-14" value="" style="endArrow=none;html=1;rounded=0;exitX=0.25;exitY=1;exitDx=0;exitDy=0;" parent="1" source="HZBSRFbbgN4RpWq9qFC1-9" target="3AvEHYJeGfzTruxZetYz-15" edge="1">
          <mxGeometry width="50" height="50" relative="1" as="geometry">
            <mxPoint x="580" y="620" as="sourcePoint" />
            <mxPoint x="655" y="515" as="targetPoint" />
          </mxGeometry>
        </mxCell>
        <mxCell id="3AvEHYJeGfzTruxZetYz-15" value="role" style="ellipse;whiteSpace=wrap;html=1;rotation=-4;" parent="1" vertex="1">
          <mxGeometry x="509.31" y="620.2" width="90" height="30" as="geometry" />
        </mxCell>
        <mxCell id="3AvEHYJeGfzTruxZetYz-16" value="" style="endArrow=none;html=1;rounded=0;exitX=0.5;exitY=1;exitDx=0;exitDy=0;" parent="1" source="HZBSRFbbgN4RpWq9qFC1-9" target="3AvEHYJeGfzTruxZetYz-18" edge="1">
          <mxGeometry width="50" height="50" relative="1" as="geometry">
            <mxPoint x="676" y="635" as="sourcePoint" />
            <mxPoint x="688" y="515" as="targetPoint" />
          </mxGeometry>
        </mxCell>
        <mxCell id="3AvEHYJeGfzTruxZetYz-18" value="password_dreser_token" style="ellipse;whiteSpace=wrap;html=1;" parent="1" vertex="1">
          <mxGeometry x="610" y="665" width="130" height="39.8" as="geometry" />
        </mxCell>
        <mxCell id="r9FboW09v7aJYYIUc9uU-1" value="" style="endArrow=none;dashed=1;html=1;rounded=0;exitX=0.182;exitY=0.608;exitDx=0;exitDy=0;exitPerimeter=0;" parent="1" source="HZBSRFbbgN4RpWq9qFC1-45" edge="1">
          <mxGeometry width="50" height="50" relative="1" as="geometry">
            <mxPoint x="950" y="1490" as="sourcePoint" />
            <mxPoint x="1000" y="1440" as="targetPoint" />
          </mxGeometry>
        </mxCell>
        <mxCell id="r9FboW09v7aJYYIUc9uU-4" value="" style="endArrow=none;html=1;rounded=0;exitX=0.687;exitY=0.042;exitDx=0;exitDy=0;exitPerimeter=0;" parent="1" source="r9FboW09v7aJYYIUc9uU-5" edge="1">
          <mxGeometry width="50" height="50" relative="1" as="geometry">
            <mxPoint x="1330" y="1220" as="sourcePoint" />
            <mxPoint x="1342.5" y="1178.5" as="targetPoint" />
          </mxGeometry>
        </mxCell>
        <mxCell id="r9FboW09v7aJYYIUc9uU-5" value="quantity" style="ellipse;whiteSpace=wrap;html=1;" parent="1" vertex="1">
          <mxGeometry x="1252.5" y="1220" width="90" height="50" as="geometry" />
        </mxCell>
        <mxCell id="r9FboW09v7aJYYIUc9uU-6" value="subtotal" style="ellipse;whiteSpace=wrap;html=1;" parent="1" vertex="1">
          <mxGeometry x="1425" y="1213.5" width="90" height="50" as="geometry" />
        </mxCell>
        <mxCell id="r9FboW09v7aJYYIUc9uU-7" value="" style="endArrow=none;html=1;rounded=0;" parent="1" source="r9FboW09v7aJYYIUc9uU-6" edge="1">
          <mxGeometry width="50" height="50" relative="1" as="geometry">
            <mxPoint x="1375" y="1228.5" as="sourcePoint" />
            <mxPoint x="1425" y="1178.5" as="targetPoint" />
          </mxGeometry>
        </mxCell>
        <mxCell id="CIs4d7YKuIMo5bXW71XS-1" value="street_address" style="ellipse;shape=doubleEllipse;margin=3;whiteSpace=wrap;html=1;align=center;" vertex="1" parent="1">
          <mxGeometry x="680" y="586.25" width="100" height="40" as="geometry" />
        </mxCell>
      </root>
    </mxGraphModel>
  </diagram>
</mxfile>
